<?xml version="1.0" encoding="UTF-8"?>
<svg id="Ebene_1" xmlns="http://www.w3.org/2000/svg" version="1.1" viewBox="0 0 498.9 209.76">
  <!-- Generator: Adobe Illustrator 30.3.0, SVG Export Plug-In . SVG Version: 2.1.3 Build 182)  -->
  <defs>
    <style>
      .st0 {
        fill: #e1320f;
      }
    </style>
  </defs>
  <g>
    <path d="M449.27,146.68c-3.74,0-5.32,2.88-5.32,2.88v-2.43h-2.92v17.3h3.14v-11.91s1.5-2.92,4.3-2.92c2.32,0,4.16,1.27,4.16,4.23v10.6h3.15v-11.12c0-4.27-3.07-6.63-6.51-6.63M421.26,154.28c.23-1.8,1.76-4.68,5.5-4.68,3.48,0,5.24,2.73,5.35,4.68h-10.86ZM426.77,146.68c-5.2,0-8.65,4.04-8.65,9.1s3.78,9.1,9.02,9.1c4.57,0,7.19-3.41,7.19-3.41l-1.98-2.06s-1.8,2.55-5.2,2.55-5.77-2.43-5.95-5.05h13.96c.04-.41.04-.67.04-1.01,0-5.58-3.59-9.21-8.42-9.21M398.91,161.24s2.55,3.63,7.41,3.63c3.33,0,6.85-1.72,6.85-5.05,0-3.52-2.81-4.76-6.1-5.47-2.85-.6-4.19-1.31-4.19-2.62,0-1.12,1.09-2.21,3.29-2.21,2.62,0,4.34,1.91,4.34,1.91l2.06-2.13s-2.32-2.62-6.4-2.62c-3.86,0-6.36,2.47-6.36,4.98,0,3.26,2.62,4.72,6.33,5.47,2.66.52,3.93,1.27,3.93,2.77,0,1.38-1.99,2.13-3.74,2.13-3.41,0-5.24-2.81-5.24-2.81l-2.17,2.02ZM380.27,154.28c.23-1.8,1.76-4.68,5.5-4.68,3.48,0,5.24,2.73,5.35,4.68h-10.86ZM385.77,146.68c-5.2,0-8.65,4.04-8.65,9.1s3.78,9.1,9.02,9.1c4.57,0,7.19-3.41,7.19-3.41l-1.98-2.06s-1.8,2.55-5.21,2.55-5.76-2.43-5.95-5.05h13.96c.04-.41.04-.67.04-1.01,0-5.58-3.59-9.21-8.42-9.21M346.5,147.13l7.9,18.04,5.69-12.99,5.69,12.99,7.9-18.04h-3.22l-4.6,11.19-4.61-11.19h-2.13l-4.57,11.19-4.64-11.19h-3.41ZM328.19,161.24s2.55,3.63,7.41,3.63c3.33,0,6.85-1.72,6.85-5.05,0-3.52-2.81-4.76-6.1-5.47-2.85-.6-4.19-1.31-4.19-2.62,0-1.12,1.08-2.21,3.29-2.21,2.62,0,4.34,1.91,4.34,1.91l2.06-2.13s-2.32-2.62-6.4-2.62c-3.86,0-6.37,2.47-6.37,4.98,0,3.26,2.62,4.72,6.33,5.47,2.66.52,3.93,1.27,3.93,2.77,0,1.38-1.98,2.13-3.74,2.13-3.41,0-5.24-2.81-5.24-2.81l-2.17,2.02ZM319.13,159.03s-1.65,2.92-5.09,2.92-5.73-2.77-5.73-6.18,2.21-6.18,5.73-6.18,5.09,2.92,5.09,2.92v6.51ZM319.13,164.65c0,3.89-2.28,5.92-5.95,5.92s-5.65-2.73-5.65-2.73l-1.91,2.36s2.81,3.29,7.56,3.29c5.02,0,9.1-2.99,9.1-8.98v-17.37h-2.88v2.51s-1.68-2.96-5.84-2.96c-4.68,0-8.39,4-8.39,9.1s3.71,9.1,8.39,9.1c3.18,0,4.98-1.83,5.58-2.62v2.4ZM292.81,146.68c-3.74,0-5.32,2.88-5.32,2.88v-2.43h-2.92v17.3h3.14v-11.91s1.5-2.92,4.31-2.92c2.32,0,4.16,1.27,4.16,4.23v10.6h3.15v-11.12c0-4.27-3.07-6.63-6.52-6.63M269.3,164.87c3.74,0,5.32-3.11,5.32-3.11v2.66h2.92v-17.3h-3.14v11.98s-1.39,2.84-4.31,2.84c-2.32,0-4.16-1.27-4.16-4.23v-10.59h-3.15v11.12c0,4.27,3.07,6.63,6.52,6.63M242.38,161.24s2.55,3.63,7.41,3.63c3.33,0,6.85-1.72,6.85-5.05,0-3.52-2.81-4.76-6.1-5.47-2.85-.6-4.19-1.31-4.19-2.62,0-1.12,1.09-2.21,3.29-2.21,2.62,0,4.34,1.91,4.34,1.91l2.06-2.13s-2.32-2.62-6.4-2.62c-3.86,0-6.36,2.47-6.36,4.98,0,3.26,2.62,4.72,6.33,5.47,2.66.52,3.93,1.27,3.93,2.77,0,1.38-1.98,2.13-3.74,2.13-3.41,0-5.24-2.81-5.24-2.81l-2.17,2.02ZM223.1,161.24s2.55,3.63,7.41,3.63c3.33,0,6.85-1.72,6.85-5.05,0-3.52-2.81-4.76-6.1-5.47-2.85-.6-4.19-1.31-4.19-2.62,0-1.12,1.09-2.21,3.29-2.21,2.62,0,4.34,1.91,4.34,1.91l2.06-2.13s-2.32-2.62-6.4-2.62c-3.86,0-6.36,2.47-6.36,4.98,0,3.26,2.62,4.72,6.33,5.47,2.66.52,3.93,1.27,3.93,2.77,0,1.38-1.99,2.13-3.75,2.13-3.41,0-5.24-2.81-5.24-2.81l-2.17,2.02ZM204.45,154.28c.23-1.8,1.76-4.68,5.5-4.68,3.48,0,5.24,2.73,5.35,4.68h-10.86ZM209.96,146.68c-5.2,0-8.65,4.04-8.65,9.1s3.78,9.1,9.02,9.1c4.57,0,7.19-3.41,7.19-3.41l-1.98-2.06s-1.8,2.55-5.21,2.55-5.76-2.43-5.95-5.05h13.96c.04-.41.04-.67.04-1.01,0-5.58-3.59-9.21-8.42-9.21M189.48,146.68c-3.78,0-5.17,3.22-5.17,3.22,0,0-1.09-3.22-5.39-3.22-3.52,0-4.79,3-4.79,3v-2.55h-2.92v17.3h3.14v-12.06s1.16-2.77,3.71-2.77c2.25,0,3.71,1.39,3.71,4.19v10.63h3.14v-12.06s1.12-2.77,3.71-2.77c2.25,0,3.71,1.39,3.71,4.19v10.63h3.15v-11.12c0-4.27-2.4-6.63-5.99-6.63M163.98,146.68c-3.3,0-4.83,3.11-4.83,3.11v-2.66h-2.92v17.3h3.15v-11.91s1.24-2.92,3.97-2.92c1.31,0,1.98.37,1.98.37l1.16-2.84s-1.09-.45-2.51-.45M136.46,154.28c.22-1.8,1.76-4.68,5.5-4.68,3.48,0,5.24,2.73,5.35,4.68h-10.86ZM141.97,146.68c-5.2,0-8.65,4.04-8.65,9.1s3.78,9.1,9.02,9.1c4.57,0,7.19-3.41,7.19-3.41l-1.98-2.06s-1.8,2.55-5.2,2.55-5.77-2.43-5.95-5.05h13.96c.04-.41.04-.67.04-1.01,0-5.58-3.59-9.21-8.42-9.21M131.97,138.22h-3.26l-7.6,19.21-7.56-19.21h-3.44l10.93,26.96,10.93-26.96Z"/>
    <path d="M337.21,112.16s-1.65,3-5.09,3-5.73-2.77-5.73-6.18,2.28-6.18,5.73-6.18,5.09,2.99,5.09,2.99v6.36ZM331.63,99.88c-4.68,0-8.39,4.01-8.39,9.1s3.71,9.1,8.39,9.1c4.16,0,5.84-2.96,5.84-2.96v2.51h2.88v-28.31h-3.14v13.14s-1.76-2.58-5.58-2.58M310.89,99.88c-3.74,0-5.32,2.88-5.32,2.88v-2.43h-2.92v17.3h3.15v-11.91s1.5-2.92,4.3-2.92c2.32,0,4.16,1.27,4.16,4.23v10.6h3.14v-11.12c0-4.27-3.07-6.63-6.51-6.63M287.38,118.07c3.74,0,5.32-3.11,5.32-3.11v2.66h2.92v-17.3h-3.14v11.98s-1.39,2.85-4.31,2.85c-2.32,0-4.15-1.27-4.15-4.23v-10.59h-3.15v11.12c0,4.27,3.07,6.63,6.51,6.63M252.26,109.99h10v-3h-10v3ZM239.87,99.88c-3,0-4.57,1.8-5.09,2.55v-13.1h-3.15v28.31h3.15v-11.91s1.5-2.92,4.31-2.92c2.32,0,4.16,1.27,4.16,4.23v10.6h3.15v-11.12c0-4.27-3.07-6.63-6.51-6.63M223.62,112.68s-1.68,2.47-5.05,2.47-5.77-2.77-5.77-6.18,2.28-6.18,5.77-6.18c3.07,0,4.76,2.1,4.76,2.1l2.13-1.91s-2.47-3.11-6.89-3.11c-5.09,0-8.91,4.04-8.91,9.1s3.82,9.1,8.91,9.1c4.57,0,7.08-3.33,7.08-3.33l-2.02-2.06ZM199.55,94.79c0,1.16.97,2.13,2.13,2.13s2.13-.97,2.13-2.13-.97-2.13-2.13-2.13-2.13.97-2.13,2.13M200.11,117.62h3.14v-17.3h-3.14v17.3ZM180.75,94.41h11.98v-3h-15.12v26.21h15.35v-3h-12.21v-8.95h11.08v-3h-11.08v-8.27ZM156.98,99.88c-3.29,0-4.83,3.11-4.83,3.11v-2.66h-2.92v17.3h3.15v-11.91s1.24-2.92,3.97-2.92c1.31,0,1.98.37,1.98.37l1.16-2.84s-1.09-.45-2.51-.45M136.09,94.79c0,1.16.97,2.13,2.13,2.13s2.13-.97,2.13-2.13-.97-2.13-2.13-2.13-2.13.97-2.13,2.13M129.31,94.79c0,1.16.97,2.13,2.13,2.13s2.13-.97,2.13-2.13-.97-2.13-2.13-2.13-2.13.97-2.13,2.13M133.95,118.07c3.74,0,5.32-3.11,5.32-3.11v2.66h2.92v-17.3h-3.15v11.98s-1.38,2.85-4.31,2.85c-2.32,0-4.15-1.27-4.15-4.23v-10.59h-3.14v11.12c0,4.27,3.07,6.63,6.51,6.63M110.7,103.17h3.59v14.45h3.15v-14.45h4.49v-2.84h-4.49v-5.77c0-1.68.94-2.77,2.62-2.77.97,0,2.02.67,2.02.67l1.16-2.58c-1.5-.82-2.62-1.01-3.63-1.01-2.47,0-5.32,1.83-5.32,5.5v5.95h-3.59v2.84Z"/>
    <path d="M295.09,56.37h3.37v9.47c0,3.82,2.73,5.43,5.2,5.43,1.01,0,2.1-.22,3.59-1.05l-1.16-2.58s-1.01.71-1.98.71c-1.68,0-2.51-.97-2.51-2.66v-9.32h5.39v-2.85h-5.39v-5.28h-3.14v5.28h-3.37v2.85ZM283.56,53.08c-3.78,0-5.17,3.22-5.17,3.22,0,0-1.09-3.22-5.39-3.22-3.52,0-4.79,3-4.79,3v-2.55h-2.92v17.3h3.14v-12.06s1.16-2.77,3.71-2.77c2.25,0,3.71,1.38,3.71,4.19v10.63h3.15v-12.06s1.12-2.77,3.71-2.77c2.25,0,3.71,1.38,3.71,4.19v10.63h3.14v-11.12c0-4.27-2.4-6.63-5.99-6.63M250.17,68.5c-1.95,0-3.97-.9-3.97-3.14,0-1.8,1.68-3.15,4.38-3.15s4.53,1.24,4.53,1.24v2.43s-1.87,2.62-4.94,2.62M250.73,53.08c-3.78,0-6.48,1.76-6.48,1.76l1.31,2.62s2.55-1.46,5.17-1.46c1.38,0,4.38.49,4.38,4.08v.94s-2.02-1.42-5.2-1.42c-3.89,0-6.85,2.4-6.85,5.77,0,3.74,3.33,5.91,6.44,5.91,3.93,0,5.88-2.96,5.88-2.96v2.51h2.88v-11.38c0-3.22-2.43-6.37-7.52-6.37M223.47,67.64s2.55,3.63,7.41,3.63c3.33,0,6.85-1.72,6.85-5.05,0-3.52-2.81-4.75-6.1-5.47-2.85-.6-4.19-1.31-4.19-2.62,0-1.12,1.09-2.21,3.29-2.21,2.62,0,4.34,1.91,4.34,1.91l2.06-2.13s-2.32-2.62-6.4-2.62c-3.86,0-6.36,2.47-6.36,4.98,0,3.26,2.62,4.72,6.33,5.47,2.66.52,3.93,1.27,3.93,2.77,0,1.39-1.98,2.13-3.74,2.13-3.41,0-5.24-2.81-5.24-2.81l-2.17,2.02ZM204.83,60.68c.23-1.8,1.76-4.68,5.5-4.68,3.48,0,5.24,2.73,5.35,4.68h-10.86ZM210.33,53.08c-5.2,0-8.65,4.04-8.65,9.1s3.78,9.1,9.02,9.1c4.57,0,7.19-3.41,7.19-3.41l-1.98-2.06s-1.8,2.55-5.21,2.55-5.76-2.43-5.95-5.05h13.97c.04-.41.04-.67.04-1.01,0-5.58-3.59-9.21-8.42-9.21M192.02,65.36s-1.65,2.99-5.09,2.99-5.73-2.77-5.73-6.18,2.28-6.18,5.73-6.18,5.09,2.99,5.09,2.99v6.37ZM186.44,53.08c-4.68,0-8.39,4.01-8.39,9.1s3.71,9.1,8.39,9.1c4.16,0,5.84-2.96,5.84-2.96v2.51h2.88v-28.3h-3.15v13.14s-1.76-2.58-5.58-2.58M165.7,53.08c-3.74,0-5.32,2.88-5.32,2.88v-2.43h-2.92v17.3h3.15v-11.91s1.5-2.92,4.31-2.92c2.32,0,4.16,1.27,4.16,4.23v10.6h3.15v-11.12c0-4.27-3.07-6.63-6.51-6.63M142.19,71.27c3.74,0,5.32-3.11,5.32-3.11v2.66h2.92v-17.3h-3.15v11.98s-1.39,2.85-4.31,2.85c-2.32,0-4.16-1.27-4.16-4.23v-10.6h-3.15v11.12c0,4.27,3.07,6.63,6.52,6.63M116.17,55.92v-8.31h4.27c2.96,0,4.76,1.61,4.76,4.16s-1.8,4.16-4.76,4.16h-4.27ZM121.22,67.83h-5.05v-8.99h5.05c3.74,0,5.39,2.02,5.39,4.49s-1.65,4.49-5.39,4.49M113.03,70.82h8.2c5.17,0,8.54-2.92,8.54-7.49,0-5.2-4.01-6.37-4.38-6.44.38-.07,2.96-1.57,2.96-5.13,0-4.38-3.03-7.15-8.42-7.15h-6.89v26.21Z"/>
  </g>
  <polygon class="st0" points="42.52 44.33 46.64 53.18 83.42 53.18 83.42 44.33 42.52 44.33"/>
  <polygon class="st0" points="54.89 70.86 83.42 70.86 83.42 62.02 50.76 62.02 54.89 70.86"/>
</svg>